<?xml version="1.0" encoding="UTF-8" standalone="no"?>
<svg
   xmlns:dc="http://purl.org/dc/elements/1.1/"
   xmlns:cc="http://creativecommons.org/ns#"
   xmlns:rdf="http://www.w3.org/1999/02/22-rdf-syntax-ns#"
   xmlns:svg="http://www.w3.org/2000/svg"
   xmlns="http://www.w3.org/2000/svg"
   id="svg8"
   version="1.1"
   viewBox="0 0 154.08372 140.55443"
   height="140.55443mm"
   width="154.08372mm">
  <defs
     id="defs2" />
  <metadata
     id="metadata5">
    <rdf:RDF>
      <cc:Work
         rdf:about="">
        <dc:format>image/svg+xml</dc:format>
        <dc:type
           rdf:resource="http://purl.org/dc/dcmitype/StillImage" />
        <dc:title></dc:title>
      </cc:Work>
    </rdf:RDF>
  </metadata>
  <g
     transform="translate(180.23532,-62.777132)"
     id="layer1">
    <g
       transform="matrix(1.7886352,0,0,1.9003601,481.40898,107.34486)"
       id="g4496">
      <g
         id="g4527">
        <path
           style="fill:#e0d9b7;stroke-width:0.35277778"
           d="m -331.99653,47.727837 c -5.26242,-2.673483 -7.7952,-6.280294 -14.14504,-4.542028 -5.50501,-3.813979 -15.82955,-1.577667 -19.127,-8.064625 -1.90838,-3.390262 -6.03467,-2.343618 -2.78355,-6.287759 3.55497,-6.155086 12.15044,-3.754952 18.2395,-5.812961 3.20215,-1.708776 7.4314,0.312458 8.23012,-3.75129 6.79602,-0.494679 5.94618,-3.521065 10.64281,-1.349835 2.89071,1.047485 12.70004,0.805688 12.86697,-4.602447 -0.26563,-4.0320414 3.35137,-6.022285 4.15475,-8.2933326 3.34579,5.2677126 5.16338,-10.0234101 7.82828,-11.5018006 2.55338,-3.9815358 1.2065,-6.2758428 7.48456,-10.6103668 1.22453,-3.600332 2.35979,-6.059633 6.96584,-4.584798 5.15126,0.252089 4.55035,-1.443594 5.53286,4.130476 1.19641,5.756493 0.91994,12.2627005 1.04262,18.07774352 -2.16114,4.29282628 -3.45556,9.50183248 0.2942,12.50659248 2.09025,4.735093 -0.75289,5.10551 -2.88643,9.151298 -3.03415,4.490148 -12.9533,0.524997 -17.47522,3.391295 -5.72306,-0.887237 0.44703,7.890708 -0.74164,12.403891 -2.04974,3.88267 -9.65217,-8.706464 -11.88641,-8.933289 -2.64467,4.672122 -2.01426,18.148934 -7.07966,19.313609 -2.48033,0.967068 -4.53117,0.345651 -7.15756,-0.640373 z m 2.13672,2.621385 c -1.98745,-0.411738 -4.38013,0.41156 -1.24027,0.04925 -0.0466,-0.09917 2.0582,0.332209 1.24027,-0.04925 z m -6.71013,-0.305216 c -0.91501,-0.709005 -0.77462,0.911401 0,0 z m 18.01908,-4.205919 c -1.11943,0.249602 0.16389,2.035488 0,0 z m -24.38532,-0.585978 c -0.95708,0.06278 1.04803,1.414593 0,0 z m -7.39209,-1.205325 c -0.91499,-0.708999 -0.77466,0.911382 0,0 z m -6.60723,-1.903529 c -1.57044,-1.619696 -1.07633,0.689567 0,0 z m 40.11339,-1.84797 c -0.80702,1.081296 0.91497,1.433705 0,0 z m -24.80935,0.594924 c -0.35653,-1.530166 -0.64601,2.503796 0,0 z m 33.82697,-0.742244 c -1.21175,-0.692356 -1.09032,0.723908 0,0 z m -55.6574,-1.532488 c -0.72499,-1.501284 -1.01209,0.09895 -0.0809,0.313916 z m 66.7673,-9.061831 c -1.53891,-0.581401 -1.30617,0.677031 0,0 z m 2.28894,0.0087 c -1.15161,-0.59169 -0.87964,0.785476 0,0 z m 2.20237,-0.467878 c -1.0091,-0.710036 -0.49157,1.368423 0,0 z m -63.32111,-6.864961 c 2.25146,-1.382087 -3.57621,1.220945 0,0 z m 2.72668,-0.76055 c -0.915,-0.708998 -0.77464,0.911404 0,0 z m 6.89322,-2.13493 c -1.21175,-0.69235 -1.0903,0.723905 0,0 z m 3.60563,5.906981 c 1.17067,-1.203542 -2.96333,1.393747 0,0 z m 4.53842,-1.24853 c -1.46012,-1.2681 -1.92703,1.722367 0,0 z m 4.84335,-1.271472 c -0.91501,-0.709003 -0.77462,0.911408 0,0 z m 5.65179,-0.398945 c -2.82062,-0.311115 -3.85124,0.417056 0,0 z m 1.41111,-2.806097 c -2.32122,-0.829359 -0.63766,0.797378 0,0 z m -4.40972,-0.696013 c -1.15111,-0.591858 -0.88011,0.785662 0,0 z m 3.88727,-0.350541 c -1.21179,-0.69248 -1.09035,0.724052 0,0 z m -2.82894,-0.355015 c -1.15161,-0.59169 -0.87964,0.785476 0,0 z m -1.59485,-0.332278 c -0.91501,-0.708993 -0.77462,0.911398 0,0 z m 14.53819,-2.489927 c -0.95705,0.06282 1.04806,1.414564 0,0 z m 2.24965,-6.8303406 c -0.35654,-1.5301641 -0.64601,2.5037966 0,0 z m 29.36453,-18.2431232 c -0.95707,0.062799 1.04802,1.414567 0,0 z m -10.23474,-9.2641282 c -0.35653,-1.530165 -0.64601,2.503795 0,0 z"
           id="path4502" />
        <path
           style="fill:#c6351a;stroke-width:0.35277778"
           d="m -337.2715,49.716459 c -5.0046,-0.995599 -6.50451,-3.722049 -4.44534,-8.080439 0.36098,-0.76405 0.65633,-1.52177 0.65633,-1.683826 0,-0.368988 -1.52409,0.583495 -3.27796,2.048556 -1.762,1.471859 -3.96005,2.077699 -6.14537,1.693827 -0.92904,-0.163195 -1.92729,-0.318068 -2.21833,-0.344166 -0.57002,-0.05111 -1.51949,-0.371098 -2.64583,-0.891674 -0.38806,-0.179356 -1.22058,-0.471117 -1.85006,-0.64836 -1.53438,-0.432043 -6.65482,-3.483755 -7.87636,-4.694206 -0.53847,-0.533576 -1.19715,-0.970139 -1.46374,-0.970139 -0.26659,0 -1.11224,-0.642648 -1.87922,-1.428111 -1.26242,-1.292829 -1.39451,-1.60194 -1.39451,-3.263195 0,-2.317926 0.66946,-3.238168 3.70345,-5.090742 2.20683,-1.347512 5.15295,-2.461645 10.40766,-3.935857 2.68837,-0.754225 8.53385,-2.466076 12.17083,-3.56423 7.40562,-2.236065 9.60667,-2.65012 14.01117,-2.635734 l 4.30977,0.01408 0.21443,-0.976291 c 0.24241,-1.103659 -0.0689,-2.40325 -0.57561,-2.40325 -0.53962,0 0.73096,-1.708644 1.38186,-1.858278 0.32468,-0.07464 0.91057,0.147151 1.30197,0.49287 0.39141,0.345722 1.40258,0.675304 2.24706,0.732412 l 1.5354,0.10383 1.28747,-3.1750004 c 1.37781,-3.3977655 3.97621,-7.8198449 6.66874,-11.3491612 14.59141,-19.1261294 16.26138,-20.8987804 19.97872,-21.2070514 1.75789,-0.145778 1.88154,-0.09533 3.39646,1.385797 1.28729,1.258567 1.74685,2.080421 2.53621,4.535693 1.63151,5.07469 1.91083,10.889765 0.7924,16.49640763 -0.6627,3.32214477 -1.25171,4.40419957 -3.16239,5.80965637 -1.73829,1.2786488 -1.94941,1.6828252 -0.879,1.6828252 1.35178,0 3.14854,1.0163927 3.86018,2.183631 1.3752,2.2555938 0.62138,8.2644938 -1.44569,11.5239128 -0.55809,0.880019 -1.01471,1.729081 -1.01471,1.886801 0,0.395319 -1.66563,2.6586 -3.44035,4.674782 -2.39414,2.719892 -6.08352,3.471541 -9.01537,1.836734 -0.81345,-0.453584 -2.55056,-1.180903 -3.86025,-1.616262 -1.30969,-0.435363 -2.38125,-0.937373 -2.38125,-1.115583 0,-0.178209 -0.15713,-0.324015 -0.34917,-0.324015 -0.19204,0 -1.42236,-0.684149 -2.73403,-1.520328 -3.15657,-2.012294 -3.2668,-2.075889 -3.2668,-1.884722 0,0.0904 1.44368,1.965085 3.20818,4.16596 3.75085,4.678457 4.1697,5.404001 4.44073,7.692446 0.40264,3.399727 -0.66569,5.638599 -2.6635,5.581798 -0.51252,-0.01457 -1.28828,0.08663 -1.72391,0.224893 -0.48821,0.15495 -0.79205,0.104761 -0.79205,-0.130831 0,-0.210224 -0.50008,-0.816233 -1.11129,-1.346691 -2.57256,-2.232692 -3.33681,-3.33956 -6.13785,-8.889474 -1.61923,-3.208331 -2.95247,-5.544048 -2.96274,-5.190483 -0.0254,0.87317 1.59106,7.82738 2.26026,9.724104 0.38613,1.094401 0.50784,2.550178 0.42695,5.106907 -0.0954,3.013861 -0.25602,3.853483 -1.02182,5.340032 -1.31197,2.546745 -2.11717,3.113924 -6.44723,4.541362 -3.36643,1.109768 -4.30225,1.275076 -7.05556,1.246321 -1.74588,-0.01824 -4.24741,-0.24662 -5.55894,-0.507534 z m -12.87303,-9.367912 c 0.71643,-1.258768 0.76707,-2.303039 0.16389,-3.380133 -0.39572,-0.706618 -0.51378,-0.729139 -1.54423,-0.294552 -1.20782,0.509397 -2.46019,2.611476 -2.1059,3.534731 0.21337,0.556055 1.40382,1.168912 2.33971,1.204514 0.29104,0.01108 0.80698,-0.467981 1.14653,-1.06456 z m 4.76332,-0.302712 c 0.89991,-0.750714 0.73645,-1.783136 -0.28233,-1.783136 -0.74725,0 -1.13764,0.514629 -1.25984,1.660772 -0.10387,0.974295 0.46665,1.019567 1.54217,0.122364 z m -12.25985,-2.665081 c 0,-0.29398 -0.31358,-0.529166 -0.70556,-0.529166 -0.39197,0 -0.70555,0.235186 -0.70555,0.529166 0,0.293981 0.31358,0.529167 0.70555,0.529167 0.39198,0 0.70556,-0.235186 0.70556,-0.529167 z m -3.66992,-2.701247 c 0.13746,-0.22242 -0.041,-0.617164 -0.39668,-0.877214 -0.54942,-0.401743 -0.74311,-0.38548 -1.28862,0.108193 -0.74433,0.673616 -0.83424,1.402267 -0.20103,1.629312 0.51366,0.184181 1.52621,-0.277608 1.88633,-0.860291 z m 8.24855,-2.233772 c 1.63385,-0.844899 1.71768,-1.860624 0.25952,-3.14459 -0.90298,-0.795105 -1.29542,-1.476844 -1.44127,-2.503724 -0.22285,-1.569011 -1.33998,-2.740928 -2.45399,-2.57435 -0.3862,0.05775 -0.99579,0.673682 -1.35608,1.370199 -0.60817,1.175721 -0.61598,1.374493 -0.11027,2.807822 0.29933,0.848392 0.66185,1.628384 0.80561,1.733317 0.14376,0.104934 0.45318,0.627352 0.68761,1.160929 0.25656,0.583963 0.7018,0.970139 1.11852,0.970139 0.38077,0 0.79042,0.15875 0.91033,0.352777 0.28405,0.459596 0.37734,0.449411 1.58002,-0.172519 z m 16.58804,-3.400971 c 0.67909,-0.411749 1.35135,-0.927093 1.4939,-1.145209 0.4198,-0.642341 0.3072,-1.631301 -0.18573,-1.631301 -0.61006,0 -3.50673,2.975522 -3.1976,3.284647 0.35973,0.359735 0.5364,0.312226 1.88943,-0.508137 z m 2.82222,0.04571 c 0,-0.194027 -0.15875,-0.352777 -0.35278,-0.352777 -0.19403,0 -0.35278,0.15875 -0.35278,0.352777 0,0.194028 0.15875,0.352778 0.35278,0.352778 0.19403,0 0.35278,-0.15875 0.35278,-0.352778 z m -11.57017,-5.59279 c -0.36324,-0.230424 -0.3395,-0.388398 0.11508,-0.765666 0.48223,-0.400216 0.6234,-0.395294 0.89324,0.03115 0.26564,0.419809 0.32141,0.404399 0.32589,-0.09006 0.008,-0.876606 -0.48396,-1.032425 -1.34822,-0.427076 -0.91805,0.643026 -1.0039,1.554889 -0.14568,1.547382 0.45924,-0.004 0.50014,-0.07976 0.15969,-0.295723 z m 35.73295,-10.983726 c 0.12359,-0.199976 -0.018,-0.259115 -0.33196,-0.138645 -0.61116,0.234523 -0.72298,0.487383 -0.21553,0.487383 0.18257,0 0.42895,-0.156933 0.54749,-0.348738 z m 3.8436,0.05979 c 0.0982,-0.158919 -0.28929,-0.220274 -0.86112,-0.136348 -0.57184,0.08393 -1.03971,0.213952 -1.03971,0.288946 0,0.268809 1.72602,0.130245 1.90083,-0.152598 z m 2.06792,-5.1302002 c 0.67412,-0.1658934 0.97014,-0.4645311 0.97014,-0.9787195 0,-0.5952282 -0.15527,-0.6983688 -0.79375,-0.5272628 -0.43656,0.1169942 -0.96111,0.2148844 -1.16565,0.2175337 -0.20455,0.00265 -1.14437,0.4946965 -2.08848,1.0934376 -2.06802,1.3114962 -1.62231,2.0189462 0.66069,1.0486803 0.7958,-0.3382116 1.88348,-0.7223619 2.41705,-0.8536693 z m 13.50768,-4.3465631 c 0.54429,-0.5442906 0.54634,-0.6279582 0.0248,-1.0093336 -0.78818,-0.5763126 -2.33178,-0.2275639 -2.33178,0.5268168 0,1.2138325 1.30311,1.4863851 2.30698,0.4825168 z m 3.33746,-3.99262399 c 1.46613,-1.46612861 0.29656,-4.57881821 -1.51735,-4.03825681 -1.94727,0.5803064 -3.32706,2.2490857 -2.8619,3.4613004 0.49358,1.28623167 3.30021,1.65599924 4.37925,0.57695641 z M -307.1159,-3.2730013 c 0.19513,-0.2403983 0.49555,-0.3500917 0.66759,-0.2437634 0.17204,0.1063286 0.3128,0.025206 0.3128,-0.180273 0,-0.5561725 -0.5282,-0.4539135 -1.43085,0.27701 -0.59506,0.4818489 -0.7283,0.8249955 -0.51366,1.3229166 0.2809,0.6516374 0.29473,0.6506154 0.44957,-0.033246 0.0879,-0.3880556 0.31941,-0.9022451 0.51455,-1.1426442 z m 12.56913,-4.6804023 c 1.14697,-0.8308619 1.46404,-1.2861802 1.46404,-2.1023904 0,-1.099878 -1.09019,-2.370047 -2.78204,-3.241341 -0.50717,-0.261189 -1.14783,-0.689256 -1.4237,-0.95126 -0.70829,-0.672714 -3.21397,-0.234006 -3.99634,0.699703 -1.01739,1.214174 -0.78297,2.255126 0.70555,3.13313 0.72761,0.4291769 1.85123,1.3973575 2.49694,2.1515128 0.64571,0.7541553 1.37595,1.3711916 1.62276,1.3711916 0.24681,0 1.10757,-0.4772459 1.91279,-1.060546 z m 8.16682,-2.4464124 c 0,-0.376604 -0.16017,-0.783726 -0.35594,-0.904715 -0.62352,-0.385358 -1.76073,0.200881 -1.76073,0.907668 0,0.5223515 0.24749,0.6817831 1.05833,0.6817831 0.81243,0 1.05834,-0.1591035 1.05834,-0.6847361 z m -0.35278,-3.696134 c 0,-0.08114 0.10635,-0.424687 0.23634,-0.763426 0.16113,-0.419907 0.105,-0.534721 -0.17639,-0.360811 -0.227,0.140294 -0.41273,0.08696 -0.41273,-0.118518 0,-0.503653 -1.30537,-0.477315 -1.62057,0.0327 -0.27033,0.437394 0.75427,1.357593 1.51161,1.357593 0.25396,0 0.46174,-0.06639 0.46174,-0.147538 z m -42.7743,26.356905 c 0.43656,-0.08409 1.15093,-0.08409 1.5875,0 0.43656,0.08408 0.0794,0.152883 -0.79375,0.152883 -0.87313,0 -1.23032,-0.0688 -0.79375,-0.152883 z m -2.11667,-0.33745 c 0.24253,-0.09786 0.63941,-0.09786 0.88194,0 0.24254,0.09786 0.0441,0.177938 -0.44097,0.177938 -0.48507,0 -0.6835,-0.08007 -0.44097,-0.177938 z m -1.38906,-0.360126 c 0.25466,-0.101907 0.55893,-0.08938 0.67616,0.02783 0.11722,0.117228 -0.0911,0.200604 -0.46302,0.185286 -0.41097,-0.01693 -0.49456,-0.10052 -0.21314,-0.213134 z m 9.66804,-3.110403 c -0.004,-0.5820833 0.12053,-1.4552083 0.27588,-1.9402778 l 0.28245,-0.8819445 -0.007,0.8819445 c -0.004,0.4850695 -0.12777,1.3581945 -0.27588,1.9402778 l -0.2693,1.0583334 -0.007,-1.0583334 z m 0.33158,-5.4680556 c 0,-0.4850695 0.0801,-0.683507 0.17794,-0.4409723 0.0979,0.2425348 -0.63177,0.038481 -0.72967,0.2810159 -0.0979,0.2425347 0.55173,0.6450256 0.55173,0.1599564 z"
           id="path4500" />
        <path
           style="fill:#221409;stroke-width:2.45820212"
           d="m -146.6543,237.40234 c -10.09012,-0.23438 -21.33969,5.92678 -33.83398,18.46289 -16.08562,16.13953 -59.81608,73.62086 -111.96484,147.17383 -12.81707,18.07774 -41.05469,74.89441 -41.05469,82.60547 0,7.54296 -6.03372,10.40841 -17.92578,8.51367 -6.08871,-0.97007 -11.63824,-3.33056 -12.33008,-5.24609 -0.44831,-1.24122 -1.23418,-2.1216 -2.20703,-2.70508 L -363,454.51953 v -12 l 1.84978,-15.78252 -4.84978,-3.21748 -2,29 -1.93555,32.89063 c -3.2502,0.30339 -6.80878,2.52498 -8.41211,6.26367 -0.59769,1.39385 -0.99098,2.64967 -1.19726,3.74219 L -393,494.51953 l -26,-6 -10.45067,-0.76682 -7.54933,3.76682 27,3 30.76367,4.39453 c 0.13929,0.20494 0.30714,0.37799 0.50781,0.50977 1.2622,0.82881 2.29493,6.49577 2.29493,12.59179 v 11.08399 l -31.59961,0.17578 c -33.07683,0.18378 -43.67641,2.44331 -111.49219,23.77149 -11.14919,3.50644 -36.90551,11.50844 -57.23633,17.7832 -67.4049,20.80334 -85.16992,29.57515 -98.33398,48.55664 -6.11528,8.81738 -6.84248,11.60593 -5.59766,21.44336 1.52017,12.014 12.00202,26.41352 21.50977,29.55078 2.7034,0.89203 8.70921,5.23816 13.34765,9.6582 17.37918,16.5607 56.71282,36.38541 86.44532,43.57032 22.15809,5.35455 35.26508,1.91276 55.52539,-14.58594 8.3439,-6.79475 16.30033,-12.35547 17.68164,-12.35547 1.38131,0 -0.22986,5.74722 -3.58008,12.77148 -3.74468,7.8513 -6.17655,17.33633 -6.31445,24.6211 -0.20213,10.70049 0.65334,12.65644 8.83203,20.16797 4.98138,4.57507 10.81068,8.31836 12.95312,8.31836 2.14251,0 4.94255,1.11445 6.22266,2.4746 1.28018,1.36013 8.20274,3.50735 15.38281,4.77149 20.84912,3.67076 50.2707,3.14886 58.36719,-1.03516 l 7.15429,-3.69726 -6.67382,0.94922 c -5.26194,0.74878 -7.82763,-0.72182 -12.13868,-6.95704 -3.00673,-4.34868 -6.87985,-11.71127 -8.60742,-16.36132 -3.11949,-8.39666 -17.9207,-20.68555 -24.91601,-20.68555 -4.97686,0 -20.40235,-14.90374 -20.40235,-19.71289 0,-2.19243 3.93528,-10.05621 8.74414,-17.47461 9.51539,-14.67889 16.03196,-17.12992 23.19141,-8.72461 9.74394,11.43946 35.43763,7.48535 38.60937,-5.94141 2.88499,-12.21262 -7.21979,-34.29492 -15.69335,-34.29492 -2.21674,0 -5.98246,-2.29104 -8.36915,-5.0918 -3.48758,-4.09442 -3.82794,-6.20537 -1.73437,-10.76953 1.43208,-3.12203 3.24532,-9.82503 4.02734,-14.89453 1.04479,-6.77268 3.61466,-10.80307 9.69336,-15.20117 4.55009,-3.29208 8.28231,-6.84152 8.28907,-7.88672 0.009,-1.0452 2.5778,-1.90039 5.70703,-1.90039 3.12922,0 8.62237,-1.61777 12.20703,-3.59375 3.82627,-2.10899 9.79869,-3.02684 14.46289,-2.22265 7.05676,1.21668 8.11938,0.62712 9.51367,-5.2754 1.70465,-7.21597 2.81269,-7.78913 8.12891,-4.21679 2.21707,1.48977 4.61612,1.36144 6.55664,-0.34961 4.48512,-3.95483 8.67441,0.71101 17.03515,18.97656 3.9489,8.627 11.54364,22.52709 16.87696,30.88867 19.72368,30.92264 26.38537,41.95039 26.43945,43.75586 0.0292,1.01814 2.15184,4.7035 4.7168,8.1875 6.29164,8.54574 5.95383,10.45471 -3.02344,17.1543 -7.56581,5.64619 -7.60532,5.78211 -2.20703,7.30078 3.06453,0.86215 4.99416,2.94684 4.35937,4.70508 -0.86057,2.38257 0.96957,2.64918 7.46875,1.09179 4.73491,-1.13459 9.21263,-2.01047 9.94922,-1.94726 0.73659,0.0632 3.74628,-0.70956 6.6875,-1.7168 7.41296,-2.5388 10.86065,-17.41431 8.07227,-34.82422 -0.47768,-2.98255 -8.58584,-2.22265 -11.71094,1.09766 -3.34833,3.55747 -2.61389,4.37852 -12.06641,-13.46875 -4.15758,-7.84988 -9.16387,-15.68654 -11.12304,-17.41406 -1.95918,-1.72754 -3.56055,-5.15114 -3.56055,-7.60742 0,-2.45628 -2.68372,-6.33245 -5.96289,-8.61524 -3.27917,-2.28282 -5.96289,-6.40508 -5.96289,-9.16015 0,-2.76343 -1.60274,-5.00977 -3.57617,-5.00977 -1.96756,0 -3.57813,-1.622 -3.57813,-3.60547 0,-1.98349 -2.48004,-6.83024 -5.51172,-10.76953 -18.24543,-23.70775 -22.5022,-43.90234 -9.2539,-43.90234 4.49499,0 5.46457,-0.76006 3.55664,-2.78711 -1.90787,-2.02705 -1.38726,-4.10029 1.9082,-7.60157 2.49215,-2.64783 5.51511,-4.81445 6.7168,-4.81445 1.20176,0 3.54047,-3.25383 5.19726,-7.23047 5.33779,-12.81218 29.5994,-24.87001 38.3711,-19.07031 1.72473,1.14021 5.60818,1.73315 8.6289,1.31836 7.58366,-1.04139 11.74089,3.34828 13.60157,14.35937 0.86956,5.14578 3.91256,14.48663 6.76171,20.75782 4.30976,9.48596 6.43707,11.53209 12.65821,12.17578 6.15103,0.63641 8.47403,-0.71243 13.0957,-7.60157 4.61248,-6.8754 5.62061,-11.54564 5.62305,-26.08398 l 0.004,-17.70898 15.16602,-3.47461 c 12.17491,-2.7887 16.25792,-2.85323 20.69531,-0.33008 6.29388,3.57878 13.0293,22.48978 13.0293,36.58594 0,6.90786 1.28295,9.74221 5.36523,11.8457 2.95123,1.52072 8.51256,6.73668 12.35938,11.5918 6.36107,8.02826 6.74255,9.53544 4.21484,16.65039 -4.67278,13.15293 -1.72718,10.31686 8.84766,-8.51953 27.070122,-48.2186 19.7352,-101.14454 -14.01758,-101.14454 -7.10862,0 -5.92019,-3.95001 2.93945,-9.76757 18.22596,-11.9679 24.80984,-30.79967 27.14258,-77.64844 2.034685,-40.86237 -1.867,-70.12641 -12.66797,-95.01953 -9.31982,-21.47957 -20.37659,-32.351 -33.34961,-32.65235 z m -8.13086,14.91602 c 1.23428,0 2.90807,1.14156 3.71875,2.53516 0.81069,1.39359 -0.19918,2.5332 -2.24414,2.5332 -2.04489,0 -3.71875,-1.13961 -3.71875,-2.5332 0,-1.3936 1.00993,-2.53516 2.24414,-2.53516 z m 28.26563,40.08594 c 2.27836,-0.0297 4.58873,0.58491 6.35742,1.95898 3.78213,2.93833 4.05342,4.47058 1.74414,9.85547 -1.50414,3.5074 -3.83214,6.37695 -5.17187,6.37695 -3.69945,0 -12.39082,-10.07442 -11.4043,-13.21875 0.96823,-3.08617 4.67733,-4.92309 8.47461,-4.97265 z m -73.12109,8.11132 c 5.8195,-0.0452 11.66404,1.56369 16.09374,5.33399 3.88583,3.30742 9.83434,8.3031 13.2168,11.10156 3.38247,2.79846 7.19458,8.96242 8.47266,13.69727 2.15582,7.98632 1.71246,9.22082 -6.13281,17.08203 -11.48348,11.50684 -19.26946,11.23887 -29.80665,-1.02735 -4.48931,-5.22599 -11.55594,-12.35194 -15.70312,-15.83593 -4.14718,-3.484 -8.12945,-8.61515 -8.84961,-11.40235 -2.77515,-10.74031 9.90607,-18.84976 22.70899,-18.94922 z m 76.05273,20.98633 c 5.32871,-0.31645 9.80725,4.4506 9.00586,10.41016 -0.52682,3.91718 -2.72288,5.49597 -8.46289,6.08398 -7.18629,0.73615 -7.75,0.24126 -7.75,-6.79687 0,-5.42518 1.3942,-8.06123 4.88476,-9.23828 0.78304,-0.26405 1.56103,-0.41378 2.32227,-0.45899 z m -1.35547,46.36133 c 1.9128,0.0128 3.44296,0.85909 5.71094,2.54688 6.80211,5.06201 7.49069,27.37864 0.95703,31.01562 -14.35183,7.98903 -31.58699,2.47945 -31.59375,-10.09961 -0.006,-8.66381 6.17904,-16.34248 16.92383,-21.00781 3.79368,-1.64721 6.08915,-2.46788 8.00195,-2.45508 z m -129.7168,8.61328 c 7.1792,0 9.94144,15.99792 3.23438,18.73242 -6.34708,2.58775 -10.61715,1.7305 -12.1211,-2.43359 -1.98756,-5.50299 3.89878,-16.29883 8.88672,-16.29883 z m 107.65821,41.25196 c 2.15721,0.0738 4.15042,0.65441 5.50586,1.8496 3.98175,3.51095 4.25464,5.00198 1.69726,9.27344 -0.97685,1.63151 -4.52729,3.70078 -7.89062,4.59766 -6.94164,1.85105 -13.12896,-3.81983 -10.90039,-9.99024 1.30092,-3.60187 6.84201,-5.89284 11.58789,-5.73046 z m -152.39258,11.95703 c 4.51074,0 11.19922,6.7335 11.19922,11.27343 0,4.76193 -5.62388,9.03411 -8.98633,6.82618 -1.5758,-1.03476 -3.55303,-5.53032 -4.39258,-9.99024 -1.19331,-6.33895 -0.71658,-8.10937 2.17969,-8.10937 z m 70.00976,17.92187 c 2.63971,0.0436 3.19532,1.20487 3.19532,4.15039 0,3.82128 -3.80551,6.58606 -16.15625,11.73438 -18.40295,7.67112 -22,8.18926 -22,3.17383 0,-4.66883 19.44261,-16.68084 29.92578,-18.48829 2.20437,-0.38006 3.83529,-0.59012 5.03515,-0.57031 z m 113.61133,24.23828 c 7.37414,-0.34572 12.77568,12.80164 10.17383,27.53711 -1.71743,9.72627 -4.71372,10.87942 -12.74023,4.90625 -7.2564,-5.40001 -7.74525,-27.42604 -0.69727,-31.43359 1.11641,-0.63481 2.21022,-0.96038 3.26367,-1.00977 z m -252.38672,35.85938 c 0.16257,0.0481 0.34434,0.44052 0.53321,1.21094 0.60443,2.46533 0.56514,5.88609 -0.0879,7.60156 -0.65324,1.71546 -1.14693,-0.30163 -1.09961,-4.48242 0.0334,-2.8743 0.29666,-4.43587 0.65429,-4.33008 z m 201.71094,26.33789 c -2.02959,-0.11514 -5.74139,2.45302 -12.35742,7.81445 -10.86107,8.80145 -13.37654,14.52778 -13.75781,31.33008 -0.18598,8.19722 -1.52264,11.37348 -6.14844,14.59375 -3.25186,2.26378 -7.58966,7.56151 -9.63867,11.77148 l -3.72656,7.6543 10.23437,4.93555 c 11.86894,5.72327 20.74727,6.23289 34.08398,1.96094 9.13668,-2.92664 9.2539,-3.09469 2.79102,-3.97461 -9.54776,-1.2999 -14.56676,-13.85567 -9.60937,-24.04102 1.90799,-3.92017 6.12746,-8.4123 9.375,-9.98437 7.60974,-3.68384 9.3901,-11.6018 4.74023,-21.07618 -2.02988,-4.13602 -3.69832,-10.65393 -3.70508,-14.48632 -0.009,-4.20432 -0.49043,-6.39645 -2.28125,-6.49805 z m -283.16406,3.68945 c 3.77925,-0.0802 6.08021,4.60119 4.76172,11.67578 -1.73859,9.32883 -9.59636,9.48942 -11.78125,0.24024 -1.17357,-4.96785 -0.43461,-7.62688 2.82617,-10.16016 1.50943,-1.17267 2.93361,-1.72912 4.19336,-1.75586 z m -58.84375,24.13672 c 1.19597,-0.0342 2.30247,0.22647 3.21875,0.82813 2.69421,1.76916 3.1524,8.93679 0.95898,15.00976 -1.84763,5.11555 -9.05251,5.15802 -13.83008,0.082 -3.01301,-3.20124 -3.15647,-4.8422 -0.77343,-8.89648 2.44802,-4.16469 6.83788,-6.92082 10.42578,-7.02344 z m -79.46289,17.5957 c 7.63898,0.14012 10.58513,4.3533 13.51562,17.33204 1.78638,7.91157 5.26428,14.65003 9.75,18.89648 8.30741,7.8643 8.85429,14.63588 1.75196,21.66602 -5.85535,5.79584 -9.30358,6.10415 -20.22657,1.80664 -10.36885,-4.0795 -17.20142,-14.21487 -20.35742,-30.20118 -3.57844,-18.12596 0.52216,-28.15199 11.99219,-29.32422 1.29646,-0.13249 2.48294,-0.19579 3.57422,-0.17578 z m 142.28711,12.38477 c 4.10371,0 5.41301,6.73138 2.45312,12.60742 -1.49637,2.97068 -6.13914,7.61487 -10.31836,10.32227 -8.41942,5.45439 -15.94531,6.45945 -15.94531,2.1289 0,-3.59414 20.39543,-25.05859 23.81055,-25.05859 z m 301.86133,0 c -0.57841,0 -1.71478,1.1396 -2.5254,2.5332 -0.81068,1.3936 -0.33635,2.53516 1.05274,2.53516 1.38908,0 2.52539,-1.14156 2.52539,-2.53516 0,-1.3936 -0.47406,-2.5332 -1.05273,-2.5332 z m -124.74805,10.17383 c -3.56668,0.0332 -3.65475,0.39701 -0.59766,2.49609 4.50067,3.09027 4.77149,3.09027 4.77149,0 0,-1.39359 -1.87847,-2.5162 -4.17383,-2.49609 z m -170.0625,10.09765 c 1.23428,0 2.90807,1.13962 3.71875,2.53321 0.81061,1.3936 -0.19925,2.5332 -2.24414,2.5332 -2.04489,0 -3.71875,-1.1396 -3.71875,-2.5332 0,-1.39359 1.00986,-2.53321 2.24414,-2.53321 z m -191.76172,32.93946 c 5.5679,0 8.82656,6.82859 5.9668,12.50586 -3.11733,6.18864 -13.86912,7.08982 -15.94727,1.33593 -1.54565,-4.27943 5.34892,-13.84179 9.98047,-13.84179 z m 80.00391,21.33203 c 3.25186,0.19057 4.75899,3.23308 6.99023,10.41601 2.34734,7.55677 2.08932,10.08949 -1.73242,17.06836 -3.50537,6.40118 -6.31565,8.35839 -12.83985,8.94922 -8.44017,0.76432 -16.45507,-5.00705 -16.45507,-11.84961 0,-7.38913 8.06508,-18.7065 15.76562,-22.125 3.74157,-1.66098 6.32037,-2.57332 8.27149,-2.45898 z m -54.22266,1.8457 c 0.3122,5e-5 0.63454,0.0308 0.96484,0.0977 2.29942,0.46564 4.52228,3.40011 4.94141,6.52148 0.79939,5.95292 -2.91142,7.36088 -8.85937,3.35938 -4.22534,-2.84258 -1.72994,-9.97932 2.95312,-9.97852 z m 85.53711,11.29492 c 1.83353,-0.0467 3.71654,0.77589 5.39258,2.55664 4.91926,5.2265 4.60057,7.58159 -1.6543,12.23633 -9.51288,7.07927 -15.11909,3.23123 -11.2793,-7.74023 1.56976,-4.48529 4.48513,-6.97484 7.54102,-7.05274 z m 192.25391,6.69727 -10.97461,3.50976 c -6.03584,1.92999 -13.46599,5.24238 -16.50977,7.36133 -4.42854,3.08295 -6.60053,3.25691 -10.875,0.87305 -2.93791,-1.63849 -6.19907,-4.52127 -7.24805,-6.4082 -3.13801,-5.64513 -10.91394,-3.92299 -20.9414,4.63867 -5.19826,4.43838 -9.159,8.78353 -8.80274,9.65625 0.3564,0.87272 5.24153,5.95813 10.85743,11.30078 l 10.21093,9.71289 5.29102,-5.17383 c 9.83493,-9.61833 24.67439,-4.06812 28.81055,10.77539 1.94876,6.99378 -0.35816,9.88555 -12.78711,16.01953 -8.2108,4.05217 -9.05193,4.92622 -3.57813,3.72657 21.86471,-4.79198 41.93125,-35.48966 37.94727,-58.05274 z m -154.50977,41.78125 c 3.64863,0.004 8.59254,2.17116 14.64063,6.5332 6.2644,4.51809 12.46399,17.60494 9.7207,20.51953 -2.77155,2.9447 -11.53229,1.37312 -21.4668,-3.85156 -8.39251,-4.41372 -10.13476,-6.57701 -10.13476,-12.57812 0,-7.0623 2.54914,-10.62871 7.24023,-10.62305 z"
           transform="matrix(0.1479247,0,0,0.139228,-269.14878,-56.486589)"
           id="path4498" />
      </g>
    </g>
  </g>
</svg>
